<svg width="799" height="699" viewBox="0 0 799 699" fill="none" xmlns="http://www.w3.org/2000/svg">
<g clip-path="url(#clip0_44_2)">
<path d="M764.071 506.775C764.071 674.465 579.144 699 399.5 699C219.855 699 26.1967 674.465 26.1967 506.775C26.1967 339.086 219.855 91.7438 399.5 91.7438C579.144 91.7438 764.071 339.086 764.071 506.775Z" fill="#85E88F"/>
<path d="M144.082 270.862C223.656 270.862 288.164 210.228 288.164 135.431C288.164 60.6346 223.656 0 144.082 0C64.5077 0 0 60.6346 0 135.431C0 210.228 64.5077 270.862 144.082 270.862Z" fill="#85E88F"/>
<path d="M654.918 270.862C734.492 270.862 799 210.228 799 135.431C799 60.6346 734.492 0 654.918 0C575.344 0 510.836 60.6346 510.836 135.431C510.836 210.228 575.344 270.862 654.918 270.862Z" fill="#85E88F"/>
<path d="M135.35 227.175C188.399 227.175 231.404 184.144 231.404 131.062C231.404 77.981 188.399 34.95 135.35 34.95C82.3002 34.95 39.2951 77.981 39.2951 131.062C39.2951 184.144 82.3002 227.175 135.35 227.175Z" fill="#EBBD1B"/>
<path d="M641.82 227.175C694.869 227.175 737.874 184.144 737.874 131.062C737.874 77.981 694.869 34.95 641.82 34.95C588.77 34.95 545.765 77.981 545.765 131.062C545.765 184.144 588.77 227.175 641.82 227.175Z" fill="#EBBD1B"/>
<path d="M399.5 699C540.563 699 654.918 592.4 654.918 460.903C654.918 329.406 540.563 222.806 399.5 222.806C258.437 222.806 144.082 329.406 144.082 460.903C144.082 592.4 258.437 699 399.5 699Z" fill="#F8D4D4"/>
<path d="M576.328 318.919C576.328 318.919 288.856 489.3 200.842 489.3C112.828 489.3 144.082 474.009 144.082 349.5C144.082 271.084 316.146 222.806 404.16 222.806C492.175 222.806 576.328 240.503 576.328 318.919Z" fill="#440707"/>
<path d="M654.918 436.875C654.918 497.194 384.582 327.656 323.093 327.656C261.604 327.656 414.781 335.551 414.781 275.231C414.781 214.911 466.812 253.387 528.301 253.387C589.789 253.387 654.918 376.555 654.918 436.875Z" fill="#440707"/>
<path d="M399.5 519.881L420.296 585.412H378.704L399.5 519.881Z" fill="#DA0D0D"/>
<path d="M440.978 452.166C493.834 424.403 523.472 427.207 576.328 452.166" stroke="black"/>
<path d="M440.978 469.641C493.834 441.877 523.472 444.682 576.328 469.641" stroke="black"/>
<path d="M440.978 460.903C493.834 433.14 523.472 435.944 576.328 460.903" stroke="black"/>
<path d="M205.208 478.378C258.065 450.615 287.7 453.419 340.557 478.378" stroke="black"/>
<path d="M205.208 469.641C258.065 441.877 287.7 444.682 340.557 469.641" stroke="black"/>
<path d="M205.208 460.903C258.065 433.14 287.7 435.944 340.557 460.903" stroke="black"/>
<path d="M508.653 563.569C546.029 563.569 576.328 538.141 576.328 506.775C576.328 475.409 546.029 449.981 508.653 449.981C471.277 449.981 440.978 475.409 440.978 506.775C440.978 538.141 471.277 563.569 508.653 563.569Z" fill="white"/>
<path d="M281.615 685.894C318.991 685.894 349.29 660.466 349.29 629.1C349.29 597.734 318.991 572.306 281.615 572.306C244.239 572.306 213.94 597.734 213.94 629.1C213.94 660.466 244.239 685.894 281.615 685.894Z" fill="#F17979"/>
<path d="M480.273 550.463C492.33 550.463 502.104 529.925 502.104 504.591C502.104 479.256 492.33 458.719 480.273 458.719C468.216 458.719 458.443 479.256 458.443 504.591C458.443 529.925 468.216 550.463 480.273 550.463Z" fill="#040404"/>
<path d="M272.883 572.306C310.258 572.306 340.557 546.879 340.557 515.513C340.557 484.146 310.258 458.719 272.883 458.719C235.507 458.719 205.208 484.146 205.208 515.513C205.208 546.879 235.507 572.306 272.883 572.306Z" fill="white"/>
<path d="M301.262 554.831C313.319 554.831 323.093 534.294 323.093 508.959C323.093 483.625 313.319 463.088 301.262 463.088C289.206 463.088 279.432 483.625 279.432 508.959C279.432 534.294 289.206 554.831 301.262 554.831Z" fill="#040404"/>
<path d="M526.117 672.787C563.493 672.787 593.792 647.36 593.792 615.994C593.792 584.627 563.493 559.2 526.117 559.2C488.742 559.2 458.443 584.627 458.443 615.994C458.443 647.36 488.742 672.787 526.117 672.787Z" fill="#F17979"/>
<path d="M331.825 615.994C390.848 653.01 419.861 649.275 467.175 615.994" stroke="black" stroke-width="2"/>
<path d="M61.1257 168.197L139.716 124.687V211.706L61.1257 168.197Z" fill="black"/>
<path d="M209.574 98.2967L130.984 141.806V54.787L209.574 98.2967Z" fill="black"/>
<path d="M571.962 98.2967L650.552 141.806V54.787L571.962 98.2967Z" fill="black"/>
<path d="M716.044 172.565L637.454 216.075V129.056L716.044 172.565Z" fill="black"/>
<path d="M272.883 432.506C305.436 432.506 331.825 423.704 331.825 412.847C331.825 401.989 305.436 393.188 272.883 393.188C240.329 393.188 213.94 401.989 213.94 412.847C213.94 423.704 240.329 432.506 272.883 432.506Z" fill="#623D23"/>
<path d="M508.653 428.138C541.206 428.138 567.596 419.336 567.596 408.478C567.596 397.621 541.206 388.819 508.653 388.819C476.1 388.819 449.71 397.621 449.71 408.478C449.71 419.336 476.1 428.138 508.653 428.138Z" fill="#623D23"/>
<path d="M328.49 162.3L353.225 198.3" stroke="#1A8624" stroke-width="3"/>
<path d="M460.315 162.3L435.58 198.3" stroke="#1A8624" stroke-width="3"/>
</g>
<defs>
<clipPath id="clip0_44_2">
<rect width="799" height="699" fill="white"/>
</clipPath>
</defs>
</svg>
